# xmcd
#
# Track frame offsets:
#	150
#	2551
#	15948
#	17838
#	29130
#	44640
#	57847
#	91271
#	107535
#	108091
#	120670
#	124622
#	143538
#	144417
#	158949
#	173295
#	186975
#	187917
#	199026
#	223705
#	237119
#	252888
#	268959
#	279173
#	292215
#	316216
#
# Disc length: 4430 seconds
#
# Revision: 0
# Processed by: cddbd v1.5.2PL0 Copyright (c) Steve Scherf et al.
# Submitted via: audiograbber 1.83.01
#
DISCID=65114c1a
DTITLE=Bob Wills and His Texas Playboys - Faded Love 1947 - 1973 [CD13)
DYEAR=2005
DGENRE=Western Swing
TTITLE0=Intro
TTITLE1=Osage Stomp
TTITLE2=Talkin'
TTITLE3=Bubbles In My Beer
TTITLE4=Don't Let The Deal Go Down
TTITLE5=Deep Water
TTITLE6=South
TTITLE7=The Kind Of Love I Can't Forget
TTITLE8=Talkin'
TTITLE9=Corrine, Corrina
TTITLE10=Talkin'
TTITLE11=Sittin' On Top Of The World
TTITLE12=Talkin'
TTITLE13=Twin Guitar Special
TTITLE14=Twinkle, Twinkle Little Star
TTITLE15=Faded Love
TTITLE16=Talkin'
TTITLE17=Medley Of Fiddle Tunes
TTITLE18=My Mother's Eyes
TTITLE19=Steel Guitar Rag
TTITLE20=My Mary
TTITLE21=Dreamy Eyes Waltz
TTITLE22=Miss Molly
TTITLE23=Misery
TTITLE24=I Never Knew
TTITLE25=Sugar Moon
EXTD=
EXTT0=
EXTT1=
EXTT2=
EXTT3=
EXTT4=
EXTT5=
EXTT6=
EXTT7=
EXTT8=
EXTT9=
EXTT10=
EXTT11=
EXTT12=
EXTT13=
EXTT14=
EXTT15=
EXTT16=
EXTT17=
EXTT18=
EXTT19=
EXTT20=
EXTT21=
EXTT22=
EXTT23=
EXTT24=
EXTT25=
PLAYORDER=
